<?xml version="1.0" encoding="UTF-8" standalone="no"?>
<!DOCTYPE svg PUBLIC "-//W3C//DTD SVG 1.1//EN"
 "http://www.w3.org/Graphics/SVG/1.1/DTD/svg11.dtd">
<!-- Generated by graphviz version 2.43.0 (0)
 -->
<!-- Title: G Pages: 1 -->
<svg width="766pt" height="946pt"
 viewBox="0.00 0.00 765.89 946.00" xmlns="http://www.w3.org/2000/svg" xmlns:xlink="http://www.w3.org/1999/xlink">
<g id="graph0" class="graph" transform="scale(1 1) rotate(0) translate(4 942)">
<title>G</title>
<polygon fill="white" stroke="transparent" points="-4,4 -4,-942 761.89,-942 761.89,4 -4,4"/>
<g id="clust1" class="cluster">
<title>cluster_root</title>
<g id="a_clust1"><a xlink:title="eventq_index=0&#10;full_system=false&#10;sim_quantum=0&#10;time_sync_enable=false&#10;time_sync_period=100000000000&#10;time_sync_spin_threshold=100000000">
<path fill="#bab6ae" stroke="#000000" d="M32.89,-8C32.89,-8 737.89,-8 737.89,-8 743.89,-8 749.89,-14 749.89,-20 749.89,-20 749.89,-918 749.89,-918 749.89,-924 743.89,-930 737.89,-930 737.89,-930 32.89,-930 32.89,-930 26.89,-930 20.89,-924 20.89,-918 20.89,-918 20.89,-20 20.89,-20 20.89,-14 26.89,-8 32.89,-8"/>
<text text-anchor="middle" x="385.39" y="-914.8" font-family="Arial" font-size="14.00" fill="#000000">root </text>
<text text-anchor="middle" x="385.39" y="-899.8" font-family="Arial" font-size="14.00" fill="#000000">: Root</text>
</a>
</g>
</g>
<g id="clust2" class="cluster">
<title>cluster_system</title>
<g id="a_clust2"><a xlink:title="cache_line_size=64&#10;eventq_index=0&#10;exit_on_work_items=false&#10;init_param=0&#10;m5ops_base=0&#10;mem_mode=timing&#10;mem_ranges=0:8589934592&#10;memories=system.mem_ctrl&#10;mmap_using_noreserve=false&#10;multi_thread=false&#10;&#10;um_work_ids=16&#10;&#13;eadfile=&#10;&#13;edirect_paths=&#10;symbolfile=&#10;thermal_components=&#10;thermal_model=Null&#10;work_begin_ckpt_count=0&#10;work_begin_cpu_id_exit=&#45;1&#10;work_begin_exit_count=0&#10;work_cpus_ckpt_count=0&#10;work_end_ckpt_count=0&#10;work_end_exit_count=0&#10;work_item_id=&#45;1&#10;workload=Null">
<path fill="#e4e7eb" stroke="#000000" d="M40.89,-16C40.89,-16 729.89,-16 729.89,-16 735.89,-16 741.89,-22 741.89,-28 741.89,-28 741.89,-872 741.89,-872 741.89,-878 735.89,-884 729.89,-884 729.89,-884 40.89,-884 40.89,-884 34.89,-884 28.89,-878 28.89,-872 28.89,-872 28.89,-28 28.89,-28 28.89,-22 34.89,-16 40.89,-16"/>
<text text-anchor="middle" x="385.39" y="-868.8" font-family="Arial" font-size="14.00" fill="#000000">system </text>
<text text-anchor="middle" x="385.39" y="-853.8" font-family="Arial" font-size="14.00" fill="#000000">: System</text>
</a>
</g>
</g>
<g id="clust6" class="cluster">
<title>cluster_system_cpu</title>
<g id="a_clust6"><a xlink:title="branchPred=system.cpu.branchPred&#10;checker=Null&#10;clk_domain=system.clk_domain&#10;cpu_id=&#45;1&#10;decodeCycleInput=true&#10;decodeInputBufferSize=3&#10;decodeInputWidth=2&#10;decodeToExecuteForwardDelay=1&#10;do_checkpoint_insts=true&#10;do_statistics_insts=true&#10;dtb=system.cpu.dtb&#10;enableIdling=true&#10;eventq_index=0&#10;executeAllowEarlyMemoryIssue=true&#10;executeBranchDelay=1&#10;executeCommitLimit=2&#10;executeCycleInput=true&#10;executeFuncUnits=system.cpu.executeFuncUnits&#10;executeInputBufferSize=7&#10;executeInputWidth=2&#10;executeIssueLimit=2&#10;executeLSQMaxStoreBufferStoresPerCycle=2&#10;executeLSQRequestsQueueSize=1&#10;executeLSQStoreBufferSize=5&#10;executeLSQTransfersQueueSize=2&#10;executeMaxAccessesInMemory=2&#10;executeMemoryCommitLimit=1&#10;executeMemoryIssueLimit=1&#10;executeMemoryWidth=0&#10;executeSetTraceTimeOnCommit=true&#10;executeSetTraceTimeOnIssue=false&#10;fetch1FetchLimit=1&#10;fetch1LineSnapWidth=0&#10;fetch1LineWidth=0&#10;fetch1ToFetch2BackwardDelay=1&#10;fetch1ToFetch2ForwardDelay=1&#10;fetch2CycleInput=true&#10;fetch2InputBufferSize=2&#10;fetch2ToDecodeForwardDelay=1&#10;function_trace=false&#10;function_trace_start=0&#10;interrupts=system.cpu.interrupts&#10;isa=system.cpu.isa&#10;itb=system.cpu.itb&#10;max_insts_all_threads=0&#10;max_insts_any_thread=0&#10;&#10;umThreads=1&#10;power_gating_on_idle=false&#10;power_model=&#10;power_state=system.cpu.power_state&#10;profile=0&#10;progress_interval=0&#10;pwr_gating_latency=300&#10;simpoint_start_insts=&#10;socket_id=0&#10;switched_out=false&#10;syscallRetryLatency=10000&#10;system=system&#10;threadPolicy=RoundRobin&#10;tracer=system.cpu.tracer&#10;ve_interface=system.cpu.ve_interface&#10;wait_for_remote_gdb=false&#10;workload=system.cpu.workload">
<path fill="#bbc6d9" stroke="#000000" d="M52.89,-24C52.89,-24 721.89,-24 721.89,-24 727.89,-24 733.89,-30 733.89,-36 733.89,-36 733.89,-380 733.89,-380 733.89,-386 727.89,-392 721.89,-392 721.89,-392 52.89,-392 52.89,-392 46.89,-392 40.89,-386 40.89,-380 40.89,-380 40.89,-36 40.89,-36 40.89,-30 46.89,-24 52.89,-24"/>
<text text-anchor="middle" x="387.39" y="-376.8" font-family="Arial" font-size="14.00" fill="#000000">cpu </text>
<text text-anchor="middle" x="387.39" y="-361.8" font-family="Arial" font-size="14.00" fill="#000000">: MinorCPU</text>
</a>
</g>
</g>
<g id="clust99" class="cluster">
<title>cluster_system_cpu_icache</title>
<g id="a_clust99"><a xlink:title="addr_ranges=0:18446744073709551615&#10;assoc=4&#10;clk_domain=system.clk_domain&#10;clusivity=mostly_incl&#10;compressor=Null&#10;data_latency=0&#10;demand_mshr_reserve=1&#10;eventq_index=0&#10;is_read_only=false&#10;max_miss_count=0&#10;mshrs=4&#10;power_model=&#10;power_state=system.cpu.icache.power_state&#10;prefetch_on_access=false&#10;prefetcher=Null&#10;&#13;eplacement_policy=system.cpu.icache.replacement_policy&#10;&#13;esponse_latency=0&#10;sequential_access=false&#10;size=65536&#10;system=system&#10;tag_latency=0&#10;tags=system.cpu.icache.tags&#10;tgts_per_mshr=20&#10;warmup_percentage=0&#10;write_allocator=Null&#10;write_buffers=8&#10;writeback_clean=false">
<path fill="#bab6ae" stroke="#000000" d="M108.89,-32C108.89,-32 270.89,-32 270.89,-32 276.89,-32 282.89,-38 282.89,-44 282.89,-44 282.89,-111 282.89,-111 282.89,-117 276.89,-123 270.89,-123 270.89,-123 108.89,-123 108.89,-123 102.89,-123 96.89,-117 96.89,-111 96.89,-111 96.89,-44 96.89,-44 96.89,-38 102.89,-32 108.89,-32"/>
<text text-anchor="middle" x="189.89" y="-107.8" font-family="Arial" font-size="14.00" fill="#000000">icache </text>
<text text-anchor="middle" x="189.89" y="-92.8" font-family="Arial" font-size="14.00" fill="#000000">: Cache</text>
</a>
</g>
</g>
<g id="clust105" class="cluster">
<title>cluster_system_cpu_dcache</title>
<g id="a_clust105"><a xlink:title="addr_ranges=0:18446744073709551615&#10;assoc=4&#10;clk_domain=system.clk_domain&#10;clusivity=mostly_incl&#10;compressor=Null&#10;data_latency=0&#10;demand_mshr_reserve=1&#10;eventq_index=0&#10;is_read_only=false&#10;max_miss_count=0&#10;mshrs=4&#10;power_model=&#10;power_state=system.cpu.dcache.power_state&#10;prefetch_on_access=false&#10;prefetcher=Null&#10;&#13;eplacement_policy=system.cpu.dcache.replacement_policy&#10;&#13;esponse_latency=0&#10;sequential_access=false&#10;size=16777216&#10;system=system&#10;tag_latency=0&#10;tags=system.cpu.dcache.tags&#10;tgts_per_mshr=20&#10;warmup_percentage=0&#10;write_allocator=Null&#10;write_buffers=8&#10;writeback_clean=false">
<path fill="#bab6ae" stroke="#000000" d="M60.89,-163C60.89,-163 222.89,-163 222.89,-163 228.89,-163 234.89,-169 234.89,-175 234.89,-175 234.89,-242 234.89,-242 234.89,-248 228.89,-254 222.89,-254 222.89,-254 60.89,-254 60.89,-254 54.89,-254 48.89,-248 48.89,-242 48.89,-242 48.89,-175 48.89,-175 48.89,-169 54.89,-163 60.89,-163"/>
<text text-anchor="middle" x="141.89" y="-238.8" font-family="Arial" font-size="14.00" fill="#000000">dcache </text>
<text text-anchor="middle" x="141.89" y="-223.8" font-family="Arial" font-size="14.00" fill="#000000">: Cache</text>
</a>
</g>
</g>
<g id="clust111" class="cluster">
<title>cluster_system_cpu_ve_interface</title>
<g id="a_clust111"><a xlink:title="eventq_index=0&#10;vector_engine=system.cpu.ve_interface.vector_engine">
<path fill="#bab6ae" stroke="#000000" d="M460.89,-147C460.89,-147 713.89,-147 713.89,-147 719.89,-147 725.89,-153 725.89,-159 725.89,-159 725.89,-334 725.89,-334 725.89,-340 719.89,-346 713.89,-346 713.89,-346 460.89,-346 460.89,-346 454.89,-346 448.89,-340 448.89,-334 448.89,-334 448.89,-159 448.89,-159 448.89,-153 454.89,-147 460.89,-147"/>
<text text-anchor="middle" x="587.39" y="-330.8" font-family="Arial" font-size="14.00" fill="#000000">ve_interface </text>
<text text-anchor="middle" x="587.39" y="-315.8" font-family="Arial" font-size="14.00" fill="#000000">: VectorEngineInterface</text>
</a>
</g>
</g>
<g id="clust112" class="cluster">
<title>cluster_system_cpu_ve_interface_vector_engine</title>
<g id="a_clust112"><a xlink:title="eventq_index=0&#10;&#10;um_clusters=1&#10;&#10;um_lanes=4&#10;system=system&#10;vector_config=system.cpu.ve_interface.vector_engine.vector_config&#10;vector_inst_queue=system.cpu.ve_interface.vector_engine.vector_inst_queue&#10;vector_lane=system.cpu.ve_interface.vector_engine.vector_lane&#10;vector_memory_unit=system.cpu.ve_interface.vector_engine.vector_memory_unit&#10;vector_reg=system.cpu.ve_interface.vector_engine.vector_reg&#10;vector_reg_validbit=system.cpu.ve_interface.vector_engine.vector_reg_validbit&#10;vector_rename=system.cpu.ve_interface.vector_engine.vector_rename&#10;vector_rf_ports=8&#10;vector_rob=system.cpu.ve_interface.vector_engine.vector_rob">
<path fill="#9f9c95" stroke="#000000" d="M468.89,-155C468.89,-155 705.89,-155 705.89,-155 711.89,-155 717.89,-161 717.89,-167 717.89,-167 717.89,-288 717.89,-288 717.89,-294 711.89,-300 705.89,-300 705.89,-300 468.89,-300 468.89,-300 462.89,-300 456.89,-294 456.89,-288 456.89,-288 456.89,-167 456.89,-167 456.89,-161 462.89,-155 468.89,-155"/>
<text text-anchor="middle" x="587.39" y="-284.8" font-family="Arial" font-size="14.00" fill="#000000">vector_engine </text>
<text text-anchor="middle" x="587.39" y="-269.8" font-family="Arial" font-size="14.00" fill="#000000">: VectorEngine</text>
</a>
</g>
</g>
<g id="clust114" class="cluster">
<title>cluster_system_cpu_ve_interface_vector_engine_vector_reg</title>
<g id="a_clust114"><a xlink:title="accessLatency=1&#10;clk_domain=system.clk_domain&#10;eventq_index=0&#10;&#10;ineSize=32&#10;mvl=1024&#10;&#10;umPorts=8&#10;&#10;um_lanes=4&#10;&#10;um_regs=40&#10;power_model=&#10;power_state=system.cpu.ve_interface.vector_engine.vector_reg.power_state&#10;size=5120">
<path fill="#84827c" stroke="#000000" d="M608.89,-163C608.89,-163 697.89,-163 697.89,-163 703.89,-163 709.89,-169 709.89,-175 709.89,-175 709.89,-242 709.89,-242 709.89,-248 703.89,-254 697.89,-254 697.89,-254 608.89,-254 608.89,-254 602.89,-254 596.89,-248 596.89,-242 596.89,-242 596.89,-175 596.89,-175 596.89,-169 602.89,-163 608.89,-163"/>
<text text-anchor="middle" x="653.39" y="-238.8" font-family="Arial" font-size="14.00" fill="#000000">vector_reg </text>
<text text-anchor="middle" x="653.39" y="-223.8" font-family="Arial" font-size="14.00" fill="#000000">: VectorRegister</text>
</a>
</g>
</g>
<g id="clust147" class="cluster">
<title>cluster_system_l1bus</title>
<g id="a_clust147"><a xlink:title="clk_domain=system.clk_domain&#10;eventq_index=0&#10;forward_latency=0&#10;frontend_latency=0&#10;header_latency=1&#10;max_outstanding_snoops=512&#10;max_routing_table_size=512&#10;point_of_coherency=false&#10;point_of_unification=false&#10;power_model=&#10;power_state=system.l1bus.power_state&#10;&#13;esponse_latency=0&#10;snoop_filter=Null&#10;snoop_response_latency=0&#10;system=system&#10;use_default_range=false&#10;width=64">
<path fill="#6f798c" stroke="#000000" d="M293.89,-400C293.89,-400 417.89,-400 417.89,-400 423.89,-400 429.89,-406 429.89,-412 429.89,-412 429.89,-479 429.89,-479 429.89,-485 423.89,-491 417.89,-491 417.89,-491 293.89,-491 293.89,-491 287.89,-491 281.89,-485 281.89,-479 281.89,-479 281.89,-412 281.89,-412 281.89,-406 287.89,-400 293.89,-400"/>
<text text-anchor="middle" x="355.89" y="-475.8" font-family="Arial" font-size="14.00" fill="#000000">l1bus </text>
<text text-anchor="middle" x="355.89" y="-460.8" font-family="Arial" font-size="14.00" fill="#000000">: CoherentXBar</text>
</a>
</g>
</g>
<g id="clust149" class="cluster">
<title>cluster_system_l2bus</title>
<g id="a_clust149"><a xlink:title="clk_domain=system.clk_domain&#10;eventq_index=0&#10;forward_latency=0&#10;frontend_latency=1&#10;header_latency=1&#10;max_outstanding_snoops=512&#10;max_routing_table_size=512&#10;point_of_coherency=false&#10;point_of_unification=true&#10;power_model=&#10;power_state=system.l2bus.power_state&#10;&#13;esponse_latency=1&#10;snoop_filter=system.l2bus.snoop_filter&#10;snoop_response_latency=1&#10;system=system&#10;use_default_range=false&#10;width=32">
<path fill="#6f798c" stroke="#000000" d="M48.89,-400C48.89,-400 172.89,-400 172.89,-400 178.89,-400 184.89,-406 184.89,-412 184.89,-412 184.89,-479 184.89,-479 184.89,-485 178.89,-491 172.89,-491 172.89,-491 48.89,-491 48.89,-491 42.89,-491 36.89,-485 36.89,-479 36.89,-479 36.89,-412 36.89,-412 36.89,-406 42.89,-400 48.89,-400"/>
<text text-anchor="middle" x="110.89" y="-475.8" font-family="Arial" font-size="14.00" fill="#000000">l2bus </text>
<text text-anchor="middle" x="110.89" y="-460.8" font-family="Arial" font-size="14.00" fill="#000000">: L2XBar</text>
</a>
</g>
</g>
<g id="clust152" class="cluster">
<title>cluster_system_membus</title>
<g id="a_clust152"><a xlink:title="clk_domain=system.clk_domain&#10;eventq_index=0&#10;forward_latency=4&#10;frontend_latency=3&#10;header_latency=1&#10;max_outstanding_snoops=512&#10;max_routing_table_size=512&#10;point_of_coherency=true&#10;point_of_unification=true&#10;power_model=&#10;power_state=system.membus.power_state&#10;&#13;esponse_latency=2&#10;snoop_filter=system.membus.snoop_filter&#10;snoop_response_latency=4&#10;system=system&#10;use_default_range=false&#10;width=16">
<path fill="#6f798c" stroke="#000000" d="M114.89,-662C114.89,-662 238.89,-662 238.89,-662 244.89,-662 250.89,-668 250.89,-674 250.89,-674 250.89,-741 250.89,-741 250.89,-747 244.89,-753 238.89,-753 238.89,-753 114.89,-753 114.89,-753 108.89,-753 102.89,-747 102.89,-741 102.89,-741 102.89,-674 102.89,-674 102.89,-668 108.89,-662 114.89,-662"/>
<text text-anchor="middle" x="176.89" y="-737.8" font-family="Arial" font-size="14.00" fill="#000000">membus </text>
<text text-anchor="middle" x="176.89" y="-722.8" font-family="Arial" font-size="14.00" fill="#000000">: SystemXBar</text>
</a>
</g>
</g>
<g id="clust155" class="cluster">
<title>cluster_system_l2cache</title>
<g id="a_clust155"><a xlink:title="addr_ranges=0:18446744073709551615&#10;assoc=8&#10;clk_domain=system.clk_domain&#10;clusivity=mostly_incl&#10;compressor=Null&#10;data_latency=0&#10;demand_mshr_reserve=1&#10;eventq_index=0&#10;is_read_only=false&#10;max_miss_count=0&#10;mshrs=20&#10;power_model=&#10;power_state=system.l2cache.power_state&#10;prefetch_on_access=false&#10;prefetcher=Null&#10;&#13;eplacement_policy=system.l2cache.replacement_policy&#10;&#13;esponse_latency=0&#10;sequential_access=false&#10;size=33554432&#10;system=system&#10;tag_latency=0&#10;tags=system.l2cache.tags&#10;tgts_per_mshr=12&#10;warmup_percentage=0&#10;write_allocator=Null&#10;write_buffers=8&#10;writeback_clean=false">
<path fill="#bab6ae" stroke="#000000" d="M48.89,-531C48.89,-531 210.89,-531 210.89,-531 216.89,-531 222.89,-537 222.89,-543 222.89,-543 222.89,-610 222.89,-610 222.89,-616 216.89,-622 210.89,-622 210.89,-622 48.89,-622 48.89,-622 42.89,-622 36.89,-616 36.89,-610 36.89,-610 36.89,-543 36.89,-543 36.89,-537 42.89,-531 48.89,-531"/>
<text text-anchor="middle" x="129.89" y="-606.8" font-family="Arial" font-size="14.00" fill="#000000">l2cache </text>
<text text-anchor="middle" x="129.89" y="-591.8" font-family="Arial" font-size="14.00" fill="#000000">: Cache</text>
</a>
</g>
</g>
<g id="clust161" class="cluster">
<title>cluster_system_mem_ctrl</title>
<g id="a_clust161"><a xlink:title="bandwidth=78.000000&#10;clk_domain=system.clk_domain&#10;conf_table_reported=true&#10;eventq_index=0&#10;image_file=&#10;in_addr_map=true&#10;kvm_map=true&#10;&#10;atency=0&#10;&#10;atency_var=0&#10;&#10;ull=false&#10;power_model=&#10;power_state=system.mem_ctrl.power_state&#10;&#13;ange=0:8589934592">
<path fill="#5e5958" stroke="#000000" d="M242.89,-531C242.89,-531 334.89,-531 334.89,-531 340.89,-531 346.89,-537 346.89,-543 346.89,-543 346.89,-610 346.89,-610 346.89,-616 340.89,-622 334.89,-622 334.89,-622 242.89,-622 242.89,-622 236.89,-622 230.89,-616 230.89,-610 230.89,-610 230.89,-543 230.89,-543 230.89,-537 236.89,-531 242.89,-531"/>
<text text-anchor="middle" x="288.89" y="-606.8" font-family="Arial" font-size="14.00" fill="#000000">mem_ctrl </text>
<text text-anchor="middle" x="288.89" y="-591.8" font-family="Arial" font-size="14.00" fill="#000000">: SimpleMemory</text>
</a>
</g>
</g>
<!-- system_system_port -->
<g id="node1" class="node">
<title>system_system_port</title>
<path fill="#b6b8bc" stroke="#000000" d="M104.39,-801.5C104.39,-801.5 171.39,-801.5 171.39,-801.5 177.39,-801.5 183.39,-807.5 183.39,-813.5 183.39,-813.5 183.39,-825.5 183.39,-825.5 183.39,-831.5 177.39,-837.5 171.39,-837.5 171.39,-837.5 104.39,-837.5 104.39,-837.5 98.39,-837.5 92.39,-831.5 92.39,-825.5 92.39,-825.5 92.39,-813.5 92.39,-813.5 92.39,-807.5 98.39,-801.5 104.39,-801.5"/>
<text text-anchor="middle" x="137.89" y="-815.8" font-family="Arial" font-size="14.00" fill="#000000">system_port</text>
</g>
<!-- system_membus_slave -->
<g id="node14" class="node">
<title>system_membus_slave</title>
<path fill="#586070" stroke="#000000" d="M122.89,-670.5C122.89,-670.5 152.89,-670.5 152.89,-670.5 158.89,-670.5 164.89,-676.5 164.89,-682.5 164.89,-682.5 164.89,-694.5 164.89,-694.5 164.89,-700.5 158.89,-706.5 152.89,-706.5 152.89,-706.5 122.89,-706.5 122.89,-706.5 116.89,-706.5 110.89,-700.5 110.89,-694.5 110.89,-694.5 110.89,-682.5 110.89,-682.5 110.89,-676.5 116.89,-670.5 122.89,-670.5"/>
<text text-anchor="middle" x="137.89" y="-684.8" font-family="Arial" font-size="14.00" fill="#000000">slave</text>
</g>
<!-- system_system_port&#45;&gt;system_membus_slave -->
<g id="edge1" class="edge">
<title>system_system_port&#45;&gt;system_membus_slave</title>
<path fill="none" stroke="black" d="M137.89,-801.37C137.89,-779.78 137.89,-742.41 137.89,-716.85"/>
<polygon fill="black" stroke="black" points="141.39,-716.7 137.89,-706.7 134.39,-716.7 141.39,-716.7"/>
</g>
<!-- system_cpu_icache_port -->
<g id="node2" class="node">
<title>system_cpu_icache_port</title>
<path fill="#959ead" stroke="#000000" d="M256.89,-171.5C256.89,-171.5 318.89,-171.5 318.89,-171.5 324.89,-171.5 330.89,-177.5 330.89,-183.5 330.89,-183.5 330.89,-195.5 330.89,-195.5 330.89,-201.5 324.89,-207.5 318.89,-207.5 318.89,-207.5 256.89,-207.5 256.89,-207.5 250.89,-207.5 244.89,-201.5 244.89,-195.5 244.89,-195.5 244.89,-183.5 244.89,-183.5 244.89,-177.5 250.89,-171.5 256.89,-171.5"/>
<text text-anchor="middle" x="287.89" y="-185.8" font-family="Arial" font-size="14.00" fill="#000000">icache_port</text>
</g>
<!-- system_cpu_icache_cpu_side -->
<g id="node4" class="node">
<title>system_cpu_icache_cpu_side</title>
<path fill="#94918b" stroke="#000000" d="M215.39,-40.5C215.39,-40.5 262.39,-40.5 262.39,-40.5 268.39,-40.5 274.39,-46.5 274.39,-52.5 274.39,-52.5 274.39,-64.5 274.39,-64.5 274.39,-70.5 268.39,-76.5 262.39,-76.5 262.39,-76.5 215.39,-76.5 215.39,-76.5 209.39,-76.5 203.39,-70.5 203.39,-64.5 203.39,-64.5 203.39,-52.5 203.39,-52.5 203.39,-46.5 209.39,-40.5 215.39,-40.5"/>
<text text-anchor="middle" x="238.89" y="-54.8" font-family="Arial" font-size="14.00" fill="#000000">cpu_side</text>
</g>
<!-- system_cpu_icache_port&#45;&gt;system_cpu_icache_cpu_side -->
<g id="edge2" class="edge">
<title>system_cpu_icache_port&#45;&gt;system_cpu_icache_cpu_side</title>
<path fill="none" stroke="black" d="M281.38,-171.37C273.11,-149.59 258.73,-111.74 249.02,-86.17"/>
<polygon fill="black" stroke="black" points="252.25,-84.81 245.42,-76.7 245.7,-87.29 252.25,-84.81"/>
</g>
<!-- system_cpu_dcache_port -->
<g id="node3" class="node">
<title>system_cpu_dcache_port</title>
<path fill="#959ead" stroke="#000000" d="M361.39,-171.5C361.39,-171.5 428.39,-171.5 428.39,-171.5 434.39,-171.5 440.39,-177.5 440.39,-183.5 440.39,-183.5 440.39,-195.5 440.39,-195.5 440.39,-201.5 434.39,-207.5 428.39,-207.5 428.39,-207.5 361.39,-207.5 361.39,-207.5 355.39,-207.5 349.39,-201.5 349.39,-195.5 349.39,-195.5 349.39,-183.5 349.39,-183.5 349.39,-177.5 355.39,-171.5 361.39,-171.5"/>
<text text-anchor="middle" x="394.89" y="-185.8" font-family="Arial" font-size="14.00" fill="#000000">dcache_port</text>
</g>
<!-- system_cpu_icache_mem_side -->
<g id="node5" class="node">
<title>system_cpu_icache_mem_side</title>
<path fill="#94918b" stroke="#000000" d="M116.89,-40.5C116.89,-40.5 172.89,-40.5 172.89,-40.5 178.89,-40.5 184.89,-46.5 184.89,-52.5 184.89,-52.5 184.89,-64.5 184.89,-64.5 184.89,-70.5 178.89,-76.5 172.89,-76.5 172.89,-76.5 116.89,-76.5 116.89,-76.5 110.89,-76.5 104.89,-70.5 104.89,-64.5 104.89,-64.5 104.89,-52.5 104.89,-52.5 104.89,-46.5 110.89,-40.5 116.89,-40.5"/>
<text text-anchor="middle" x="144.89" y="-54.8" font-family="Arial" font-size="14.00" fill="#000000">mem_side</text>
</g>
<!-- system_cpu_dcache_cpu_side -->
<g id="node6" class="node">
<title>system_cpu_dcache_cpu_side</title>
<path fill="#94918b" stroke="#000000" d="M167.39,-171.5C167.39,-171.5 214.39,-171.5 214.39,-171.5 220.39,-171.5 226.39,-177.5 226.39,-183.5 226.39,-183.5 226.39,-195.5 226.39,-195.5 226.39,-201.5 220.39,-207.5 214.39,-207.5 214.39,-207.5 167.39,-207.5 167.39,-207.5 161.39,-207.5 155.39,-201.5 155.39,-195.5 155.39,-195.5 155.39,-183.5 155.39,-183.5 155.39,-177.5 161.39,-171.5 167.39,-171.5"/>
<text text-anchor="middle" x="190.89" y="-185.8" font-family="Arial" font-size="14.00" fill="#000000">cpu_side</text>
</g>
<!-- system_cpu_dcache_mem_side -->
<g id="node7" class="node">
<title>system_cpu_dcache_mem_side</title>
<path fill="#94918b" stroke="#000000" d="M68.89,-171.5C68.89,-171.5 124.89,-171.5 124.89,-171.5 130.89,-171.5 136.89,-177.5 136.89,-183.5 136.89,-183.5 136.89,-195.5 136.89,-195.5 136.89,-201.5 130.89,-207.5 124.89,-207.5 124.89,-207.5 68.89,-207.5 68.89,-207.5 62.89,-207.5 56.89,-201.5 56.89,-195.5 56.89,-195.5 56.89,-183.5 56.89,-183.5 56.89,-177.5 62.89,-171.5 68.89,-171.5"/>
<text text-anchor="middle" x="96.89" y="-185.8" font-family="Arial" font-size="14.00" fill="#000000">mem_side</text>
</g>
<!-- system_cpu_ve_interface_vector_engine_vector_reg_port -->
<g id="node8" class="node">
<title>system_cpu_ve_interface_vector_engine_vector_reg_port</title>
<path fill="#6a6863" stroke="#000000" d="M638.89,-171.5C638.89,-171.5 668.89,-171.5 668.89,-171.5 674.89,-171.5 680.89,-177.5 680.89,-183.5 680.89,-183.5 680.89,-195.5 680.89,-195.5 680.89,-201.5 674.89,-207.5 668.89,-207.5 668.89,-207.5 638.89,-207.5 638.89,-207.5 632.89,-207.5 626.89,-201.5 626.89,-195.5 626.89,-195.5 626.89,-183.5 626.89,-183.5 626.89,-177.5 632.89,-171.5 638.89,-171.5"/>
<text text-anchor="middle" x="653.89" y="-185.8" font-family="Arial" font-size="14.00" fill="#000000">port</text>
</g>
<!-- system_cpu_ve_interface_vector_engine_vector_mem_port -->
<g id="node9" class="node">
<title>system_cpu_ve_interface_vector_engine_vector_mem_port</title>
<path fill="#7f7c77" stroke="#000000" d="M477.39,-171.5C477.39,-171.5 576.39,-171.5 576.39,-171.5 582.39,-171.5 588.39,-177.5 588.39,-183.5 588.39,-183.5 588.39,-195.5 588.39,-195.5 588.39,-201.5 582.39,-207.5 576.39,-207.5 576.39,-207.5 477.39,-207.5 477.39,-207.5 471.39,-207.5 465.39,-201.5 465.39,-195.5 465.39,-195.5 465.39,-183.5 465.39,-183.5 465.39,-177.5 471.39,-171.5 477.39,-171.5"/>
<text text-anchor="middle" x="526.89" y="-185.8" font-family="Arial" font-size="14.00" fill="#000000">vector_mem_port</text>
</g>
<!-- system_l1bus_slave -->
<g id="node10" class="node">
<title>system_l1bus_slave</title>
<path fill="#586070" stroke="#000000" d="M379.89,-408.5C379.89,-408.5 409.89,-408.5 409.89,-408.5 415.89,-408.5 421.89,-414.5 421.89,-420.5 421.89,-420.5 421.89,-432.5 421.89,-432.5 421.89,-438.5 415.89,-444.5 409.89,-444.5 409.89,-444.5 379.89,-444.5 379.89,-444.5 373.89,-444.5 367.89,-438.5 367.89,-432.5 367.89,-432.5 367.89,-420.5 367.89,-420.5 367.89,-414.5 373.89,-408.5 379.89,-408.5"/>
<text text-anchor="middle" x="394.89" y="-422.8" font-family="Arial" font-size="14.00" fill="#000000">slave</text>
</g>
<!-- system_l1bus_slave&#45;&gt;system_cpu_dcache_port -->
<g id="edge3" class="edge">
<title>system_l1bus_slave&#45;&gt;system_cpu_dcache_port</title>
<path fill="none" stroke="black" d="M394.89,-398.06C394.89,-349.15 394.89,-248.23 394.89,-207.81"/>
<polygon fill="black" stroke="black" points="391.39,-398.22 394.89,-408.22 398.39,-398.22 391.39,-398.22"/>
</g>
<!-- system_l1bus_slave&#45;&gt;system_cpu_ve_interface_vector_engine_vector_mem_port -->
<g id="edge4" class="edge">
<title>system_l1bus_slave&#45;&gt;system_cpu_ve_interface_vector_engine_vector_mem_port</title>
<path fill="none" stroke="black" d="M431.46,-413.56C442.51,-408.42 453.83,-401.39 461.89,-392 509.55,-336.51 522.39,-245.53 525.75,-207.77"/>
<polygon fill="black" stroke="black" points="429.76,-410.48 421.91,-417.6 432.49,-416.92 429.76,-410.48"/>
</g>
<!-- system_l1bus_master -->
<g id="node11" class="node">
<title>system_l1bus_master</title>
<path fill="#586070" stroke="#000000" d="M302.39,-408.5C302.39,-408.5 337.39,-408.5 337.39,-408.5 343.39,-408.5 349.39,-414.5 349.39,-420.5 349.39,-420.5 349.39,-432.5 349.39,-432.5 349.39,-438.5 343.39,-444.5 337.39,-444.5 337.39,-444.5 302.39,-444.5 302.39,-444.5 296.39,-444.5 290.39,-438.5 290.39,-432.5 290.39,-432.5 290.39,-420.5 290.39,-420.5 290.39,-414.5 296.39,-408.5 302.39,-408.5"/>
<text text-anchor="middle" x="319.89" y="-422.8" font-family="Arial" font-size="14.00" fill="#000000">master</text>
</g>
<!-- system_l1bus_master&#45;&gt;system_cpu_dcache_cpu_side -->
<g id="edge5" class="edge">
<title>system_l1bus_master&#45;&gt;system_cpu_dcache_cpu_side</title>
<path fill="none" stroke="black" d="M289.99,-421.78C270.34,-417.75 245.63,-409.38 230.89,-392 188.55,-342.08 186.36,-260.18 188.51,-217.8"/>
<polygon fill="black" stroke="black" points="192.02,-217.88 189.15,-207.68 185.03,-217.44 192.02,-217.88"/>
</g>
<!-- system_l2bus_slave -->
<g id="node12" class="node">
<title>system_l2bus_slave</title>
<path fill="#586070" stroke="#000000" d="M134.89,-408.5C134.89,-408.5 164.89,-408.5 164.89,-408.5 170.89,-408.5 176.89,-414.5 176.89,-420.5 176.89,-420.5 176.89,-432.5 176.89,-432.5 176.89,-438.5 170.89,-444.5 164.89,-444.5 164.89,-444.5 134.89,-444.5 134.89,-444.5 128.89,-444.5 122.89,-438.5 122.89,-432.5 122.89,-432.5 122.89,-420.5 122.89,-420.5 122.89,-414.5 128.89,-408.5 134.89,-408.5"/>
<text text-anchor="middle" x="149.89" y="-422.8" font-family="Arial" font-size="14.00" fill="#000000">slave</text>
</g>
<!-- system_l2bus_slave&#45;&gt;system_cpu_icache_mem_side -->
<g id="edge6" class="edge">
<title>system_l2bus_slave&#45;&gt;system_cpu_icache_mem_side</title>
<path fill="none" stroke="black" d="M120.96,-403.25C118.64,-402.02 116.27,-400.91 113.89,-400 99.48,-394.48 55.16,-403.53 44.89,-392 -27.54,-310.69 -0.1,-246.16 44.89,-147 58.9,-116.12 89.8,-91.85 113.56,-76.79"/>
<polygon fill="black" stroke="black" points="119.22,-406.29 129.59,-408.5 122.86,-400.31 119.22,-406.29"/>
</g>
<!-- system_l2bus_slave&#45;&gt;system_cpu_dcache_mem_side -->
<g id="edge7" class="edge">
<title>system_l2bus_slave&#45;&gt;system_cpu_dcache_mem_side</title>
<path fill="none" stroke="black" d="M143.77,-398.37C132.77,-349.57 109.93,-248.32 100.79,-207.81"/>
<polygon fill="black" stroke="black" points="140.38,-399.23 145.99,-408.22 147.21,-397.69 140.38,-399.23"/>
</g>
<!-- system_l2bus_master -->
<g id="node13" class="node">
<title>system_l2bus_master</title>
<path fill="#586070" stroke="#000000" d="M57.39,-408.5C57.39,-408.5 92.39,-408.5 92.39,-408.5 98.39,-408.5 104.39,-414.5 104.39,-420.5 104.39,-420.5 104.39,-432.5 104.39,-432.5 104.39,-438.5 98.39,-444.5 92.39,-444.5 92.39,-444.5 57.39,-444.5 57.39,-444.5 51.39,-444.5 45.39,-438.5 45.39,-432.5 45.39,-432.5 45.39,-420.5 45.39,-420.5 45.39,-414.5 51.39,-408.5 57.39,-408.5"/>
<text text-anchor="middle" x="74.89" y="-422.8" font-family="Arial" font-size="14.00" fill="#000000">master</text>
</g>
<!-- system_l2cache_mem_side -->
<g id="node17" class="node">
<title>system_l2cache_mem_side</title>
<path fill="#94918b" stroke="#000000" d="M56.89,-539.5C56.89,-539.5 112.89,-539.5 112.89,-539.5 118.89,-539.5 124.89,-545.5 124.89,-551.5 124.89,-551.5 124.89,-563.5 124.89,-563.5 124.89,-569.5 118.89,-575.5 112.89,-575.5 112.89,-575.5 56.89,-575.5 56.89,-575.5 50.89,-575.5 44.89,-569.5 44.89,-563.5 44.89,-563.5 44.89,-551.5 44.89,-551.5 44.89,-545.5 50.89,-539.5 56.89,-539.5"/>
<text text-anchor="middle" x="84.89" y="-553.8" font-family="Arial" font-size="14.00" fill="#000000">mem_side</text>
</g>
<!-- system_membus_slave&#45;&gt;system_l2cache_mem_side -->
<g id="edge8" class="edge">
<title>system_membus_slave&#45;&gt;system_l2cache_mem_side</title>
<path fill="none" stroke="black" d="M126.97,-660.91C116.47,-635.37 100.92,-597.52 91.96,-575.7"/>
<polygon fill="black" stroke="black" points="123.81,-662.45 130.85,-670.37 130.29,-659.79 123.81,-662.45"/>
</g>
<!-- system_membus_master -->
<g id="node15" class="node">
<title>system_membus_master</title>
<path fill="#586070" stroke="#000000" d="M195.39,-670.5C195.39,-670.5 230.39,-670.5 230.39,-670.5 236.39,-670.5 242.39,-676.5 242.39,-682.5 242.39,-682.5 242.39,-694.5 242.39,-694.5 242.39,-700.5 236.39,-706.5 230.39,-706.5 230.39,-706.5 195.39,-706.5 195.39,-706.5 189.39,-706.5 183.39,-700.5 183.39,-694.5 183.39,-694.5 183.39,-682.5 183.39,-682.5 183.39,-676.5 189.39,-670.5 195.39,-670.5"/>
<text text-anchor="middle" x="212.89" y="-684.8" font-family="Arial" font-size="14.00" fill="#000000">master</text>
</g>
<!-- system_mem_ctrl_port -->
<g id="node18" class="node">
<title>system_mem_ctrl_port</title>
<path fill="#4b4746" stroke="#000000" d="M250.89,-539.5C250.89,-539.5 280.89,-539.5 280.89,-539.5 286.89,-539.5 292.89,-545.5 292.89,-551.5 292.89,-551.5 292.89,-563.5 292.89,-563.5 292.89,-569.5 286.89,-575.5 280.89,-575.5 280.89,-575.5 250.89,-575.5 250.89,-575.5 244.89,-575.5 238.89,-569.5 238.89,-563.5 238.89,-563.5 238.89,-551.5 238.89,-551.5 238.89,-545.5 244.89,-539.5 250.89,-539.5"/>
<text text-anchor="middle" x="265.89" y="-553.8" font-family="Arial" font-size="14.00" fill="#000000">port</text>
</g>
<!-- system_membus_master&#45;&gt;system_mem_ctrl_port -->
<g id="edge9" class="edge">
<title>system_membus_master&#45;&gt;system_mem_ctrl_port</title>
<path fill="none" stroke="black" d="M219.93,-670.37C228.88,-648.59 244.43,-610.74 254.93,-585.17"/>
<polygon fill="black" stroke="black" points="258.26,-586.28 258.82,-575.7 251.79,-583.62 258.26,-586.28"/>
</g>
<!-- system_l2cache_cpu_side -->
<g id="node16" class="node">
<title>system_l2cache_cpu_side</title>
<path fill="#94918b" stroke="#000000" d="M155.39,-539.5C155.39,-539.5 202.39,-539.5 202.39,-539.5 208.39,-539.5 214.39,-545.5 214.39,-551.5 214.39,-551.5 214.39,-563.5 214.39,-563.5 214.39,-569.5 208.39,-575.5 202.39,-575.5 202.39,-575.5 155.39,-575.5 155.39,-575.5 149.39,-575.5 143.39,-569.5 143.39,-563.5 143.39,-563.5 143.39,-551.5 143.39,-551.5 143.39,-545.5 149.39,-539.5 155.39,-539.5"/>
<text text-anchor="middle" x="178.89" y="-553.8" font-family="Arial" font-size="14.00" fill="#000000">cpu_side</text>
</g>
<!-- system_l2cache_cpu_side&#45;&gt;system_l2bus_master -->
<g id="edge10" class="edge">
<title>system_l2cache_cpu_side&#45;&gt;system_l2bus_master</title>
<path fill="none" stroke="black" d="M152.38,-532.5C139.99,-520.62 125.45,-505.71 113.89,-491 102.3,-476.25 91.33,-457.84 83.99,-444.64"/>
<polygon fill="black" stroke="black" points="150.1,-535.16 159.78,-539.47 154.9,-530.07 150.1,-535.16"/>
</g>
</g>
</svg>
